/* XPM */
static char * 063bricksq06_xpm[] = {
"40 40 66 1",
" 	c #FFFFFF",
".	c #FCFCFC",
"+	c #F5F5F5",
"@	c #FDFDFD",
"#	c #FEFEFE",
"$	c #C3C3C3",
"%	c #000000",
"&	c #CECECE",
"*	c #CBCBCB",
"=	c #D9D9D9",
"-	c #C0C0C0",
";	c #D1D1D1",
">	c #C8C8C8",
",	c #D6D6D6",
"'	c #F2F2F2",
")	c #FBFBFB",
"!	c #DBDBDB",
"~	c #E8E8E8",
"{	c #E5E5E5",
"]	c #F4F4F4",
"^	c #D8D8D8",
"/	c #EBEBEB",
"(	c #EFEFEF",
"_	c #FAFAFA",
":	c #BDBDBD",
"<	c #D4D4D4",
"[	c #B7B7B7",
"}	c #CDCDCD",
"|	c #C5C5C5",
"1	c #CACACA",
"2	c #F8F8F8",
"3	c #E2E2E2",
"4	c #1D1D1D",
"5	c #E3E3E3",
"6	c #E9E9E9",
"7	c #F7F7F7",
"8	c #DFDFDF",
"9	c #F9F9F9",
"0	c #B1B1B1",
"a	c #D2D2D2",
"b	c #ABABAB",
"c	c #B9B9B9",
"d	c #C6C6C6",
"e	c #BFBFBF",
"f	c #D3D3D3",
"g	c #EEEEEE",
"h	c #E0E0E0",
"i	c #474747",
"j	c #E4E4E4",
"k	c #DEDEDE",
"l	c #F6F6F6",
"m	c #A5A5A5",
"n	c #D7D7D7",
"o	c #DDDDDD",
"p	c #BABABA",
"q	c #DCDCDC",
"r	c #EAEAEA",
"s	c #B8B8B8",
"t	c #DADADA",
"u	c #ECECEC",
"v	c #C1C1C1",
"w	c #C4C4C4",
"x	c #C2C2C2",
"y	c #F1F1F1",
"z	c #CFCFCF",
"A	c #CCCCCC",
" .++++++++@ @+++++++++# .++++++++# @+++#",
".$%%%%%%%%& *%%%%%%%%%=.-%%%%%%%%;#>%%%,",
"+%%%%%%%%%%#%%%%%%%%%%%'%%%%%%%%%%)%%%%%",
"+%%%%%%%%%%#%%%%%%%%%%%'%%%%%%%%%%)%%%%%",
"+%%%%%%%%%%#%%%%%%%%%%%'%%%%%%%%%%)%%%%%",
" !%%%%%%%%~ {%%%%%%%%%] ^%%%%%%%%/)%%%%%",
" )(((# _((((((((@ )((((((((. .(((@)%%%%%",
".:%%%<_[%%%%%%%%}@-%%%%%%%%| >%%%1)%%%%%",
"+%%%%%(%%%%%%%%%%2%%%%%%%%%%#%%%%%)%%%%%",
"+%%%%%(%%%%%%%%%%2%%%%%%%%%%#%%%%%)%%%%%",
"+%%%%%(%%%%%%%%%%2%%%%%%%%%%#%%%%%#<%%%3",
"+%%%%% =44444444' 5444444446 %%%%%  ### ",
"+%%%%% 2666  76666666_ @666) %%%%%#;%%%8",
"+%%%%%90%%%a7b%%%%%%%c.d%%%e#%%%%%)%%%%%",
"+%%%%%(%%%%46%%%%%%%%%2%%%%%#%%%%%)%%%%%",
"+%%%%%(%%%%46%%%%%%%%%2%%%%%#%%%%%)%%%%%",
"#f%%%g(%%%%46%%%%%%%%%2%%%%%#h%%%5)%%%%%",
" @222 (%%%%4 <iiiiiiij %%%%%##222#)%%%%%",
"@d%%%k(%%%%4 +333 9333@%%%%%#;%%%<)%%%%%",
"+%%%%%(%%%%4lm%%%}3%%%2%%%%%#%%%%%)%%%%%",
"+%%%%%(%%%%46%%%%i3%%%2%%%%%#%%%%%)%%%%%",
"+%%%%%(%%%%46%%%%i3%%%2n%%%& %%%%%)%%%%%",
"+%%%%%#a%%%26%%%%i@222 #222# %%%%% 8%%%g",
"+%%%%% )''' 6%%%%i.e%%%%%%%o %%%%% .'''#",
"+%%%%%)p%%%q6%%%%i3%%%%%%%%%#%%%%%#|%%%f",
"+%%%%%(%%%%46%%%%i3%%%%%%%%%#%%%%%)%%%%%",
"+%%%%%(%%%%46%%%%i3%%%%%%%%%#%%%%%)%%%%%",
"+%%%%%(%%%%4)e%%%r_s%%%%%%%< n%%%t)%%%%%",
" k%%%9(%%%%4 ####  ########   ### )%%%%%",
" _uuu#(%%%%4.v%%%%%%%%{@*%%%%%%%%o)%%%%%",
".p%%%;(%%%%46%%%%%%%%%%'%%%%%%%%%%)%%%%%",
"+%%%%%(%%%%46%%%%%%%%%%'%%%%%%%%%%)%%%%%",
"+%%%%%(%%%%46%%%%%%%%%%'%%%%%%%%%%)%%%%%",
"+%%%%%@1%%%(.w%%%%%%%%~@&%%%%%%%%h#n%%%{",
"+%%%%% #)))))))#  ))))))))))  #)))))))) ",
"+%%%%%.x%%%%%%%|.8%%%%%%%%%%j)e%%%%%%%%q",
"+%%%%%(%%%%%%%%%'%%%%%%%%%%%%u%%%%%%%%%%",
"+%%%%%(%%%%%%%%%'%%%%%%%%%%%%u%%%%%%%%%%",
"+%%%%%(%%%%%%%%%'%%%%%%%%%%%%u%%%%%%%%%%",
"#,%%%y#z%%%%%%%f#g%%%%%%%%%%]@A%%%%%%%%/"};
