/* XPM */
static char * 063bricksq08_xpm[] = {
"40 40 81 1",
" 	c #FFFFFF",
".	c #9D9D9D",
"+	c #696969",
"@	c #B1B1B1",
"#	c #5B5B5B",
"$	c #929292",
"%	c #666666",
"&	c #A7A7A7",
"*	c #5A5A5A",
"=	c #F4F4F4",
"-	c #D8D8D8",
";	c #848484",
">	c #575757",
",	c #959595",
"'	c #4C4C4C",
")	c #7B7B7B",
"!	c #4B4B4B",
"~	c #000000",
"{	c #0B0B0B",
"]	c #1B1B1B",
"^	c #0D0D0D",
"/	c #C9C9C9",
"(	c #E2E2E2",
"_	c #CECECE",
":	c #818181",
"<	c #4F4F4F",
"[	c #E9E9E9",
"}	c #FAFAFA",
"|	c #E7E7E7",
"1	c #E6E6E6",
"2	c #F9F9F9",
"3	c #838383",
"4	c #505050",
"5	c #626262",
"6	c #474747",
"7	c #4D4D4D",
"8	c #E1E1E1",
"9	c #242424",
"0	c #282828",
"a	c #1E1E1E",
"b	c #8B8B8B",
"c	c #8D8D8D",
"d	c #D5D5D5",
"e	c #939393",
"f	c #1D1D1D",
"g	c #DFDFDF",
"h	c #3B3B3B",
"i	c #656565",
"j	c #3D3D3D",
"k	c #393939",
"l	c #A9A9A9",
"m	c #ECECEC",
"n	c #606060",
"o	c #6F6F6F",
"p	c #6B6B6B",
"q	c #3C3C3C",
"r	c #5C5C5C",
"s	c #1C1C1C",
"t	c #373737",
"u	c #A1A1A1",
"v	c #555555",
"w	c #303030",
"x	c #EDEDED",
"y	c #F1F1F1",
"z	c #F6F6F6",
"A	c #FBFBFB",
"B	c #F5F5F5",
"C	c #5E5E5E",
"D	c #636363",
"E	c #4E4E4E",
"F	c #5F5F5F",
"G	c #565656",
"H	c #191919",
"I	c #383838",
"J	c #4A4A4A",
"K	c #535353",
"L	c #494949",
"M	c #F3F3F3",
"N	c #EAEAEA",
"O	c #050505",
"P	c #454545",
"        .+  @#            $%  &*        ",
"        .+  @#            $%  &*        ",
"  =-----;>  ,'-----  -----)%  &!-----=  ",
"  -~~~~~~~~~~~~~~~{  {~~~~]%  &^~~~~~-  ",
"  -~/((((((((((((_~  ~_(((:%  &<(((/~-  ",
"  -~(            [~  ~[   $%  &*   (~-  ",
"  -~( }|11111112 [~  ~[ 213%  &4|} (~-  ",
"  -~( |566666678 [~  ~[ 879%  &05| (~-  ",
"..;ab.c0~bdde~fg [~  ~[ gf~h..i~61 (~;..",
"++++++++j&  @klm [~  ~[ ml&&&&&b61 (~4nn",
"        .&  @#   [~  ~[        d61 (~-  ",
"        .&  @#   [~  ~[        d61 (~-  ",
"oooooooop&  @q%%%rs  tu@@@@@@@@e61 (~v%%",
"$$)]:$39~&  @w$$$$$  #####]q##k~61 (~)$$",
"  -~x 17fl  @#            #@  lf71 (~-  ",
"  -~x 28gm  @#            #@  mg82 (~-  ",
"  -~x       @#            #@       (~-  ",
"  -~8yyyyyyyu#            #u[[[[[[[_~-  ",
"  -{~~~~~~~~t#            #t~~~~~~~~~-  ",
"                                        ",
"                                        ",
"  -~~~~~~~~~t#            #t~~~~~~~~~-  ",
"  -~mzzzzAAAu#            #u[[[[[[[_~-  ",
"  -~(       @#            #@       (~-  ",
"  -~( 28gm  @#            #@  mg82 (~-  ",
"  -~( B7fl  @#            #@  lf71 (~-  ",
"$$)~( B6~C$$Dw$$$$$  $$$$$w@  &~93$:])$$",
"%%v~( B6EFFFFFFFFGH  sr%%%q@  &p%%%%%%%%",
"  -~( B6d        [~  ~[   #@  &.        ",
"  -~( B6d        [~  ~[   #@  &.        ",
"nn4~( B6b&&&&&lm [~  ~[ mlk@  &Innnnnnnn",
"..;~( B6~I..p~fg [~  ~[ gf~eddb~0c.ba;..",
"  -~( B50n  @978 [~  ~[ 876666665| (~-  ",
"  -~( }|cn  @J12 [~  ~[ 21111111|} (~-  ",
"  -~(   .n  @K   [~  ~[            (~-  ",
"  -~/(((bn  @L(((_~  ~_M}MMMMMMMMMMN~-  ",
"  -~~~~~~n  @~~~~~{  {~~~~~~~~~~~~~~O-  ",
"  =-----;n  @P-----  -----)v  c!-----=  ",
"        .n  @K            $%  &*        ",
"        .n  @K            $%  &*        "};
