/* XPM */
static char * idle_left_xpm[] = {
"40 80 50 1",
" 	c None",
".	c #141B1B",
"+	c #DBCCBD",
"@	c #DDCEBF",
"#	c #EFE9D9",
"$	c #F1EBDB",
"%	c #886E6A",
"&	c #3D2936",
"*	c #494182",
"=	c #A3A7C2",
"-	c #7864C6",
";	c #F5FFE8",
">	c #DCCDBE",
",	c #876D69",
"'	c #BCA398",
")	c #BAA297",
"!	c #BDA499",
"~	c #BBA398",
"{	c #151C1B",
"]	c #1E2221",
"^	c #191F1E",
"/	c #2D2E2C",
"(	c #30312E",
"_	c #EEE8D8",
":	c #30302E",
"<	c #161C1C",
"[	c #D8C9BB",
"}	c #8C736E",
"|	c #43413D",
"1	c #F0E9D9",
"2	c #ECE6D8",
"3	c #EEE8D9",
"4	c #DBCCBE",
"5	c #DACBBD",
"6	c #DBCDBF",
"7	c #DCCDBF",
"8	c #8B726D",
"9	c #8B726E",
"0	c #DACBBC",
"a	c #3F2B37",
"b	c #402E39",
"c	c #45343D",
"d	c #48373F",
"e	c #47353E",
"f	c #4A3941",
"g	c #484181",
"h	c #4A4282",
"i	c #4B4282",
"j	c #A3A6C1",
"k	c #DBCDBE",
"                                        ",
"                                        ",
"                                        ",
"                                        ",
"                                        ",
"                                        ",
"                                        ",
"                                        ",
"                                        ",
"                                        ",
"                    ..                  ",
"                   .++.                 ",
"            ........@@......            ",
"            #$##.+++@@.+++++.           ",
"          ..$$$$.+@@%%.+@@@@..          ",
"         .##$$$$.+@@%%.+@@@@++.         ",
"        ..$$$$@@@@@@%%.+@@@@@@+.        ",
"        .#$$$$@@@@@@%%.+@@@@@@+.        ",
"        .+@@@@@@@@@@@@@@@@@@@@+.        ",
"        .+@@@@@@@@@@@@@@@@@@@@+.        ",
"        .+@@@@@@@@@@@@@@@@@@@@+.        ",
"        .+@@@@@@@@@@@@@@@@@@@@+.        ",
"        .+@@&&&&&&@@@@@@@@@@@@+.        ",
"        .+@@&&&&&&@@@@@@@@@@@@+.        ",
"        .+@@****==@@@@@@@@@@@@+.        ",
"        .+@@****==@@@@@@@@@@@@+.        ",
"        .+@@----;;@@@@@@@@@@@@+.        ",
"        .+@@----;;@@@@@@@@@@@@+.        ",
"        .+>>@@@@@@@@@@@@@@>>++.         ",
"        ..%%@@@@@@@@@@@@@@%%..          ",
"         .,,@@@@@@@@@@%%%%,.            ",
"          ..@@@@@@@@@@'''').            ",
"            .,%%%%%%..!!!!).            ",
"            .'''''%%..!!!!).            ",
"            .~!!!!.+@@@@!!).            ",
"            .~!!!!.+@@@@!!).            ",
"            .~!!!!.@@@@@+..             ",
"            .~!!!!.+@@@@+.              ",
"             {~~%%%%++++@.              ",
"              ..%%%%......              ",
"                                        ",
"                                        ",
"                                        ",
"                                        ",
"                                        ",
"                                        ",
"                                        ",
"                                        ",
"                                        ",
"                                        ",
"                                        ",
"                                        ",
"                    ..                  ",
"                   ]++^                 ",
"            ////////@@//////            ",
"           (____:+++@@:+++++(           ",
"          ::____<[@@}}:+@@@@::          ",
"         (______<[@@}}:+@@@@+@:         ",
"        .|11234566@@}}:+@@@@@@+.        ",
"        .#$$$$7>77@@89/+@@@@@@+.        ",
"        .+@@@@@@@@@@@@@@@@@@@@+.        ",
"        .+@@@@@@@@@@@@@@@@@@@@+.        ",
"        .+@@@@@@@@@@@@@@@@@@@@0.        ",
"        .+@@@@@@@@@@@@@@@@@4+++.        ",
"        .+@@abcddd@@@@@@@@@@@@+.        ",
"        .@++ccceff@@4>>>>>7@@@+.        ",
"        .+@@ghiijj>k@@@@@@@>@@+.        ",
"        .+@@****==@@@@@@@@@@@@+.        ",
"        .+@@----;;@@@@@@@@@@@@+.        ",
"        .+@@----;;@@@@@@@@@@@@+.        ",
"        .+>>@>@@@@@@@@@@@@>>++.         ",
"        ..%%@@@@@@@@@@@@@@>%..          ",
"         .,,@@@@@@@@>>>>>>+.            ",
"          ..@@@@@@@@%%%%%%,.            ",
"            .,%%%%,.@@@@>!~.            ",
"            .~'''''.@@@@>!~.            ",
"            .~!!!!'.@@@@+..             ",
"            ..!!!!'.@@@@+.              ",
"             .~~%%%%+++++.              ",
"              ..%%%%......              "};
