/* XPM */
static char * idle_front_xpm[] = {
"40 80 19 1",
" 	c None",
".	c #141B1B",
"+	c #000000",
"@	c #DBCCBD",
"#	c #DDCEBF",
"$	c #876D69",
"%	c #886E6A",
"&	c #EFE9D9",
"*	c #F1EBDB",
"=	c #3D2936",
"-	c #A3A7C2",
";	c #494182",
">	c #F5FFE8",
",	c #7864C6",
"'	c #DCCDBE",
")	c #BBA398",
"!	c #BCA398",
"~	c #BDA499",
"{	c #010101",
"                                        ",
"                                        ",
"                                        ",
"                                        ",
"                                        ",
"                                        ",
"                                        ",
"                                        ",
"                                        ",
"                                        ",
"            ..            ..            ",
"           +@@+          +@@+           ",
"          ..##@.        .@##..          ",
"         +$$##@.        .@##$$+         ",
"        .$%%##&..........&##%%$.        ",
"        .$%%##&&&&&&&&&&&&##%%$.        ",
"        .$%%##************##%%$.        ",
"        .$%%##************##%%$.        ",
"        .@######********######@.        ",
"        .@######********######@.        ",
"        .@####################@.        ",
"        .@####################@.        ",
"      .@####======####======####@.      ",
"      .@####======####======####@.      ",
"      .@####--;;;;####;;;;--####@.      ",
"      .@####--;;;;####;;;;--####@.      ",
"      .@####>>,,,,####,,,,>>####@.      ",
"      .@####>>,,,,####,,,,>>####@.      ",
"       +.@########%%%%########@.+       ",
"        .@########''''########@.        ",
"         +..%%############%%..+         ",
"          .)!!############!!).          ",
"        ..%%~~%%%%%%%%%%%%~~%%..        ",
"       +@@''~~!!!!!!!!!!!!~~''@@+       ",
"      .@####~~~~~~~~~~~~~~~~####@.      ",
"      .@####~~~~~~~~~~~~~~~~####@.      ",
"      .@####~~~~~~))))~~~~~~####@.      ",
"      .@####~~~~~~....~~~~~~####@.      ",
"       +@@@@!!!!))....))!!!!@@@@+       ",
"        ....%%%%........%%%%....        ",
"                                        ",
"                                        ",
"                                        ",
"                                        ",
"                                        ",
"                                        ",
"                                        ",
"                                        ",
"                                        ",
"                                        ",
"                                        ",
"                                        ",
"            ..            ..            ",
"           {#@{          {@@{           ",
"          ..##@.        .@##..          ",
"         {$$##@.        .@##$${         ",
"        .$%%##&..........&##%%$.        ",
"        .$%%##&&&&&&&&&&&&##%%$.        ",
"        .$%%##************##%%$.        ",
"        .$%%##************##%%$.        ",
"        .@######********######@.        ",
"        .@######********######@.        ",
"        .@####################@.        ",
"       +.@####################@.+       ",
"      .@####======####======####@.      ",
"      .#####======####======####@.      ",
"      .@####--;;;;####;;;;--####@.      ",
"      .@####--;;;;####;;;;--####@.      ",
"      .@####>>,,,,####,,,,>>####@.      ",
"      .@####>>,,,,####,,,,>>####@.      ",
"       +.@########%%%%########@.+       ",
"        .@########''''########@.        ",
"        ....%%############%%....        ",
"       +@@@@!!############!!@@@@+       ",
"      .@####~~%%%%%%%%%%%%~~####@.      ",
"      .@####~~!!!!!!!!!!!!~~####@.      ",
"      .@####~~~~~~))))~~~~~~####@.      ",
"      .@####~~~~~~....~~~~~~####@.      ",
"       +@@@@!!!!))....))!!!!@@@@+       ",
"        ....%%%%........%%%%....        "};
