/* XPM */
static char * idle_back_xpm[] = {
"40 80 19 1",
" 	c None",
".	c #141B1B",
"+	c #DBCCBD",
"@	c #DDCEBF",
"#	c #EFE9D9",
"$	c #876D69",
"%	c #886E6A",
"&	c #F1EBDB",
"*	c #DBCDBE",
"=	c #DCCDBE",
"-	c #DBCCBE",
";	c #DED0C1",
">	c #DDCFC0",
",	c #DACBBC",
"'	c #DCCDBF",
")	c #BCA398",
"!	c #BDA499",
"~	c #BBA398",
"{	c #8A716D",
"                                        ",
"                                        ",
"                                        ",
"                                        ",
"                                        ",
"                                        ",
"                                        ",
"                                        ",
"                                        ",
"                                        ",
"            ..            ..            ",
"           .++.          .++.           ",
"          .+@@#.        .#@@+.          ",
"         ..+@@#.        .#@@+..         ",
"        .$%%@@#..........#@@%%$.        ",
"        .$%%@@############@@%%$.        ",
"        .$%%@@&&&&&&&&&&&&@@%%$.        ",
"        .$%%@@&&&&&&&&&&&&@@%%$.        ",
"        .+@@@@@@&&&&&&&&@@@@@@+.        ",
"        .+@@@@@@&&&&&&&&@@@@@@+.        ",
"        .+@@@@@@@@@@@@@@@@@@@@+.        ",
"       ..+@@@@@@@@@@@@@@@@@@@@+..       ",
"      .+@@@@@@@**==@@@@@@@@@@@@@+.      ",
"      .+*=--@@;>@@@@@@@@@@@@@@@@+.      ",
"      .+,+++@@@@@@@@@@@@@@@@@@@@+.      ",
"      .+,+='@@@@@@@@@@@@@@@@@@@@+.      ",
"      .+*@@@@@@@@@@@@@@@@@@@@@@@+.      ",
"      .+@@@@@@@@@@@@@@@@@@@@@@@@+.      ",
"       .++@@@@@@@@@@@@@@@@@@@@++.       ",
"        ..@@@@@@@@@@@@@@@@@@@@..        ",
"          ..%%@@@@@@@@@@@@%%..          ",
"         .$$))@@@@@@@@@@@@))$$.         ",
"        ..%%!!%%%%%%%%%%%%!!%%..        ",
"       .++%%!!))))))))))))!!%%++.       ",
"      .+@@@@!!!!!!!!!!!!!!!!@@@@+.      ",
"      .+@@@@!!!!!!!!!!!!!!!!@@@@+.      ",
"      .+@@@@!!!!!!~~~~!!!!!!@@@@+.      ",
"      .+@@@@!!!!!!....!!!!!!@@@@+.      ",
"       .++++))))~~....~~))))++++.       ",
"        ....%%%%........%%%%....        ",
"                                        ",
"                                        ",
"                                        ",
"                                        ",
"                                        ",
"                                        ",
"                                        ",
"                                        ",
"                                        ",
"                                        ",
"                                        ",
"                                        ",
"            ..            ..            ",
"           .++.          .++.           ",
"          .+@@+.        .+@@+.          ",
"         ..+@@+.        .+@@+..         ",
"        .$%%@@#..........#@@%%$.        ",
"        .${%@@############@@%%$.        ",
"        .$%%@@&&&&&&&&&&&&@@%%$.        ",
"        .$%%@@&&&&&&&&&&&&@@%%$.        ",
"        .+@@@@@@&&&&&&&&@@@@@@+.        ",
"        .+@@@@@@&&&&&&&&@@@@@@+.        ",
"        .+@@@@@@@@@@@@@@@@@@@@+.        ",
"       ..+@@@@@@@@@@@@@@@@@@@@+..       ",
"      .+@@@@@@@@@@@@@@@@@@@@@@@@+.      ",
"      .+@@@@@@@@@@@@@@@@@@@@@@@@+.      ",
"      .+@@@@@@@@@@@@@@@@@@@@@@@@+.      ",
"      .+@@@@@@@@@@@@@@@@@@@@@@@@+.      ",
"      .+@@@@@@@@@@@@@@@@@@@@@@@@+.      ",
"      .+@@@@@@@@@@@@@@@@@@@@@@@@+.      ",
"       .++@@@@@@@@@@@@@@@@@@@@++.       ",
"        ..@@@@@@@@@@@@@@@@@@@@..        ",
"       .++..%%@@@@@@@@@@@@%%..++.       ",
"       .++++))@@@@@@@@@@@@))++++.       ",
"      .+@@@@!!%%%%%%%%%%%%!!@@@@+.      ",
"      .+@@@@!!))))))))))))!!@@@@+.      ",
"      .+@@@@!!!!!!~~~~!!!!!!@@@@+.      ",
"      .+@@@@!!!!!!....!!!!!!@@@@+.      ",
"       .++++)))!~~....~~))))++++.       ",
"        ....%%%%........%%%%....        "};
