/* XPM */
static char * idle_right_xpm[] = {
"40 80 50 1",
" 	c None",
".	c #141B1B",
"+	c #DBCCBD",
"@	c #DDCEBF",
"#	c #EFE9D9",
"$	c #F1EBDB",
"%	c #886E6A",
"&	c #3D2936",
"*	c #A3A7C2",
"=	c #494182",
"-	c #F5FFE8",
";	c #7864C6",
">	c #DCCDBE",
",	c #876D69",
"'	c #BAA297",
")	c #BCA398",
"!	c #BDA499",
"~	c #BBA398",
"{	c #151C1B",
"]	c #191F1E",
"^	c #1E2221",
"/	c #2D2E2C",
"(	c #30312E",
"_	c #30302E",
":	c #EEE8D8",
"<	c #8C736E",
"[	c #D8C9BB",
"}	c #161C1C",
"|	c #DBCDBF",
"1	c #DACBBD",
"2	c #DBCCBE",
"3	c #EEE8D9",
"4	c #ECE6D8",
"5	c #F0E9D9",
"6	c #43413D",
"7	c #8B726E",
"8	c #8B726D",
"9	c #DCCDBF",
"0	c #DACBBC",
"a	c #48373F",
"b	c #45343D",
"c	c #402E39",
"d	c #3F2B37",
"e	c #4A3941",
"f	c #47353E",
"g	c #DBCDBE",
"h	c #A3A6C1",
"i	c #4B4282",
"j	c #4A4282",
"k	c #484181",
"                                        ",
"                                        ",
"                                        ",
"                                        ",
"                                        ",
"                                        ",
"                                        ",
"                                        ",
"                                        ",
"                                        ",
"                  ..                    ",
"                 .++.                   ",
"            ......@@........            ",
"           .+++++.@@+++.##$#            ",
"          ..@@@@+.%%@@+.$$$$..          ",
"         .++@@@@+.%%@@+.$$$$##.         ",
"        .+@@@@@@+.%%@@@@@@$$$$..        ",
"        .+@@@@@@+.%%@@@@@@$$$$#.        ",
"        .+@@@@@@@@@@@@@@@@@@@@+.        ",
"        .+@@@@@@@@@@@@@@@@@@@@+.        ",
"        .+@@@@@@@@@@@@@@@@@@@@+.        ",
"        .+@@@@@@@@@@@@@@@@@@@@+.        ",
"        .+@@@@@@@@@@@@&&&&&&@@+.        ",
"        .+@@@@@@@@@@@@&&&&&&@@+.        ",
"        .+@@@@@@@@@@@@**====@@+.        ",
"        .+@@@@@@@@@@@@**====@@+.        ",
"        .+@@@@@@@@@@@@--;;;;@@+.        ",
"        .+@@@@@@@@@@@@--;;;;@@+.        ",
"         .++>>@@@@@@@@@@@@@@>>+.        ",
"          ..%%@@@@@@@@@@@@@@%%..        ",
"            .,%%%%@@@@@@@@@@,,.         ",
"            .'))))@@@@@@@@@@..          ",
"            .'!!!!..%%%%%%,.            ",
"            .'!!!!..%%))))).            ",
"            .'!!@@@@+.!!!!~.            ",
"            .'!!@@@@+.!!!!~.            ",
"             ..+@@@@@.!!!!~.            ",
"              .+@@@@+.!!!!~.            ",
"              .@++++%%%%~~{             ",
"              ......%%%%..              ",
"                                        ",
"                                        ",
"                                        ",
"                                        ",
"                                        ",
"                                        ",
"                                        ",
"                                        ",
"                                        ",
"                                        ",
"                                        ",
"                                        ",
"                  ..                    ",
"                 ]++^                   ",
"            //////@@////////            ",
"           (+++++_@@+++_::::(           ",
"          __@@@@+_<<@@[}::::__          ",
"         _@+@@@@+_<<@@[}::::::(         ",
"        .+@@@@@@+_<<@@||1234556.        ",
"        .+@@@@@@+/78@@99>9$$$$#.        ",
"        .+@@@@@@@@@@@@@@@@@@@@+.        ",
"        .+@@@@@@@@@@@@@@@@@@@@+.        ",
"        .0@@@@@@@@@@@@@@@@@@@@+.        ",
"        .+++2@@@@@@@@@@@@@@@@@+.        ",
"        .+@@@@@@@@@@@@aaabcd@@+.        ",
"        .+@@@9>>>>>2@@eefbbb++@.        ",
"        .+@@>@@@@@@@g>hhiijk@@+.        ",
"        .+@@@@@@@@@@@@**====@@+.        ",
"        .+@@@@@@@@@@@@--;;;;@@+.        ",
"        .+@@@@@@@@@@@@--;;;;@@+.        ",
"         .++>>@@@@@@@@@@@@>@>>+.        ",
"          ..%>@@@@@@@@@@@@@@%%..        ",
"            .+>>>>>>@@@@@@@@,,.         ",
"            .,%%%%%%@@@@@@@@..          ",
"            .~!>@@@@.,%%%%,.            ",
"            .~!>@@@@.)))))~.            ",
"             ..+@@@@.)!!!!~.            ",
"              .+@@@@.)!!!!..            ",
"              .+++++%%%%~~.             ",
"              ......%%%%..              "};
