/* XPM */
static char * joker2_xpm[] = {
"40 40 110 2",
"  	c None",
". 	c #F2F2F2",
"+ 	c #EEEEEE",
"@ 	c #DEDEDE",
"# 	c #DFDFDF",
"$ 	c #E2E1E1",
"% 	c #E0E0E0",
"& 	c #E4E4E4",
"* 	c #DFDEDE",
"= 	c #D6D6D6",
"- 	c #FDFDFD",
"; 	c #FFFFFF",
"> 	c #000000",
", 	c #FEFEFE",
"' 	c #D3D2CC",
") 	c #FAF9F2",
"! 	c #FFFFFA",
"~ 	c #FCFBF4",
"{ 	c #FAF9F1",
"] 	c #FBF9F2",
"^ 	c #ECEBE5",
"/ 	c #D7D6D0",
"( 	c #211515",
"_ 	c #FAFAFA",
": 	c #FFFFFC",
"< 	c #FF6395",
"[ 	c #FAFAF2",
"} 	c #F7F6ED",
"| 	c #F7F6EE",
"1 	c #F8F7EF",
"2 	c #B9B7B3",
"3 	c #241A1A",
"4 	c #FCF7F1",
"5 	c #FFF5F1",
"6 	c #FFFEF8",
"7 	c #FCFAF3",
"8 	c #F2F0E6",
"9 	c #B7B6B2",
"0 	c #241A1B",
"a 	c #FFFFFB",
"b 	c #FCF5F0",
"c 	c #FFFFF9",
"d 	c #FEFDF7",
"e 	c #F2F1E6",
"f 	c #FBF9F1",
"g 	c #FBFBF4",
"h 	c #F8F7EE",
"i 	c #FFFCF7",
"j 	c #FF6A98",
"k 	c #FF6596",
"l 	c #FFFDF7",
"m 	c #FFE8E8",
"n 	c #FF6998",
"o 	c #FFF2EF",
"p 	c #FF6897",
"q 	c #FFF6F2",
"r 	c #FF6898",
"s 	c #FEF7F2",
"t 	c #F8F9EF",
"u 	c #FFE2E3",
"v 	c #FF5F93",
"w 	c #FF6294",
"x 	c #FF5D92",
"y 	c #FCECE9",
"z 	c #FAF8F1",
"A 	c #FFF3F0",
"B 	c #FF6094",
"C 	c #FF6194",
"D 	c #FCEFEB",
"E 	c #FEFCF6",
"F 	c #FFF3EF",
"G 	c #FF5A91",
"H 	c #FCDFE0",
"I 	c #FCE9E7",
"J 	c #FCE7E5",
"K 	c #FF5790",
"L 	c #FCEEEB",
"M 	c #FFFCF6",
"N 	c #FF5E93",
"O 	c #FFF1EF",
"P 	c #FF7FA3",
"Q 	c #FFF8F3",
"R 	c #FFF1EE",
"S 	c #FF87A7",
"T 	c #FF5B92",
"U 	c #FF84A6",
"V 	c #FFB2C1",
"W 	c #FCE8E6",
"X 	c #FF82A5",
"Y 	c #FF769E",
"Z 	c #FFF8F4",
"` 	c #FF86A7",
" .	c #FF7EA2",
"..	c #FFFAF5",
"+.	c #FFFFF8",
"@.	c #FEFEF8",
"#.	c #F6F4EB",
"$.	c #B7B6B1",
"%.	c #B7B5B1",
"&.	c #FCF1ED",
"*.	c #FCF2EE",
"=.	c #FEFCF5",
"-.	c #F7F5ED",
";.	c #B8B7B2",
">.	c #D3D1CD",
",.	c #FDFBF4",
"'.	c #FBFAF2",
").	c #F7F7F7",
"!.	c #EFEFEF",
"~.	c #F6F6F6",
"                                                                                ",
"                                                                                ",
"                                                                                ",
"                                                                                ",
"                                                                                ",
"                                                                                ",
"                    . + @ # # # # # $ % % & % % % * = -                         ",
"                  ; . > > > > > > > > > > > > > > > > % ,                       ",
"                  ; > ' ) ! ! ! ~ { { { { { { { ] ^ / ( _                       ",
"                  ; > ) : < < < [ } } } } } } | ) 1 2 3 _                       ",
"                  ; > ) ! 4 < 5 6 6 6 6 6 6 6 6 7 8 9 0 _                       ",
"                  ; > ) a b < c 6 6 6 6 6 6 6 6 d e 9 0 _                       ",
"                  ; > ) a < < c 6 6 6 6 6 6 6 6 d e 9 0 _                       ",
"                  ; > ) f g c 6 6 6 6 6 6 6 6 6 d e 9 0 _                       ",
"                  ; > ) h ) 6 6 6 6 i j k < 6 6 d e 9 0 _                       ",
"                  ; > ) h ) c c c l < < m j ! c d e 9 0 _                       ",
"                  ; > ) h [ n k k o < < p q n r s e 9 0 _                       ",
"                  ; > ) t p u v w < < < < p x y p 8 9 0 _                       ",
"                  ; > ) h z A v < < < w B C x D E e 9 0 _                       ",
"                  ; > ) h ) F G < < < H I J K L d e 9 0 _                       ",
"                  ; > ) h ) M I N < < I ~ O P Q d e 9 0 _                       ",
"                  ; > ) h ) 6 D x < < I c R S c d e 9 0 _                       ",
"                  ; > ) h ) 6 D x < B I c o S c d e 9 0 _                       ",
"                  ; > ) h ) 6 D T < B I c U S c d e 9 0 _                       ",
"                  ; > ) h ) 6 M V k C W X Y Z 6 d e 9 0 _                       ",
"                  ; > ) h ) 6 6 c `  . .P ..6 +.@.#.$.0 _                       ",
"                  ; > ) h ) 6 6 6 c ! ! ! 6 c < < c %.0 _                       ",
"                  ; > ) h ) 6 6 6 6 6 6 6 6 c < &.c %.0 _                       ",
"                  ; > ) h 1 6 6 6 6 6 6 6 6 ..< *.c %.0 _                       ",
"                  ; > ) =.) -.} } } } } } 1 < < < ! ;.3 _                       ",
"                  ; > ' >.,.{ { { { { { { '.c ! ! ^ / ( _                       ",
"                  , . > > > > > > > > > > > > > > > > % -                       ",
"                    ).!.@ # # # # # # # # # # # # @ = ~.                        ",
"                                                                                ",
"                                                                                ",
"                                                                                ",
"                                                                                ",
"                                                                                ",
"                                                                                ",
"                                                                                "};
